<svg width="21" height="26" viewBox="0 0 21 26" fill="none" xmlns="http://www.w3.org/2000/svg">
<path d="M5.83333 13H8.16667C8.47609 13 8.77283 12.863 8.99162 12.6192C9.21042 12.3754 9.33333 12.0448 9.33333 11.7C9.33333 11.3552 9.21042 11.0246 8.99162 10.7808C8.77283 10.537 8.47609 10.4 8.16667 10.4H5.83333C5.52391 10.4 5.22717 10.537 5.00838 10.7808C4.78958 11.0246 4.66667 11.3552 4.66667 11.7C4.66667 12.0448 4.78958 12.3754 5.00838 12.6192C5.22717 12.863 5.52391 13 5.83333 13ZM16.3333 5.2H10.5V2.6H11.6667C11.9761 2.6 12.2728 2.46304 12.4916 2.21924C12.7104 1.97544 12.8333 1.64478 12.8333 1.3C12.8333 0.955218 12.7104 0.624558 12.4916 0.380761C12.2728 0.136964 11.9761 0 11.6667 0H9.33333C9.02391 0 8.72717 0.136964 8.50838 0.380761C8.28958 0.624558 8.16667 0.955218 8.16667 1.3V5.2H4.66667C3.42899 5.2 2.242 5.74786 1.36683 6.72304C0.491665 7.69823 0 9.02087 0 10.4V18.2C0 18.5448 0.122916 18.8754 0.341709 19.1192C0.560501 19.363 0.857247 19.5 1.16667 19.5H8.16667V24.7C8.16667 25.0448 8.28958 25.3754 8.50838 25.6192C8.72717 25.863 9.02391 26 9.33333 26C9.64275 26 9.9395 25.863 10.1583 25.6192C10.3771 25.3754 10.5 25.0448 10.5 24.7V19.5H19.8333C20.1428 19.5 20.4395 19.363 20.6583 19.1192C20.8771 18.8754 21 18.5448 21 18.2V10.4C21 9.02087 20.5083 7.69823 19.6332 6.72304C18.758 5.74786 17.571 5.2 16.3333 5.2ZM11.6667 10.4V16.9H2.33333V10.4C2.33333 9.71044 2.57917 9.04912 3.01675 8.56152C3.45434 8.07393 4.04783 7.8 4.66667 7.8H12.32C11.8959 8.58519 11.6701 9.48355 11.6667 10.4ZM18.6667 16.9H14V10.4C14 9.71044 14.2458 9.04912 14.6834 8.56152C15.121 8.07393 15.7145 7.8 16.3333 7.8C16.9522 7.8 17.5457 8.07393 17.9832 8.56152C18.4208 9.04912 18.6667 9.71044 18.6667 10.4V16.9Z" fill="white"/>
</svg>
