<svg width="0" height="0" class="hidden">
  <symbol xmlns="http://www.w3.org/2000/svg" viewBox="0 0 31 24" id="arrow">
    <path d="M30.0607 13.0607C30.6464 12.4749 30.6464 11.5251 30.0607 10.9393L20.5147 1.3934C19.9289 0.807611 18.9792 0.807611 18.3934 1.3934C17.8076 1.97919 17.8076 2.92893 18.3934 3.51472L26.8787 12L18.3934 20.4853C17.8076 21.0711 17.8076 22.0208 18.3934 22.6066C18.9792 23.1924 19.9289 23.1924 20.5147 22.6066L30.0607 13.0607ZM0 13.5H29V10.5H0V13.5Z"></path>
  </symbol>
  <symbol xmlns="http://www.w3.org/2000/svg" viewBox="0 0 21 26" id="mailbox">
    <path d="M5.83333 13H8.16667C8.47609 13 8.77283 12.863 8.99162 12.6192C9.21042 12.3754 9.33333 12.0448 9.33333 11.7C9.33333 11.3552 9.21042 11.0246 8.99162 10.7808C8.77283 10.537 8.47609 10.4 8.16667 10.4H5.83333C5.52391 10.4 5.22717 10.537 5.00838 10.7808C4.78958 11.0246 4.66667 11.3552 4.66667 11.7C4.66667 12.0448 4.78958 12.3754 5.00838 12.6192C5.22717 12.863 5.52391 13 5.83333 13ZM16.3333 5.2H10.5V2.6H11.6667C11.9761 2.6 12.2728 2.46304 12.4916 2.21924C12.7104 1.97544 12.8333 1.64478 12.8333 1.3C12.8333 0.955218 12.7104 0.624558 12.4916 0.380761C12.2728 0.136964 11.9761 0 11.6667 0H9.33333C9.02391 0 8.72717 0.136964 8.50838 0.380761C8.28958 0.624558 8.16667 0.955218 8.16667 1.3V5.2H4.66667C3.42899 5.2 2.242 5.74786 1.36683 6.72304C0.491665 7.69823 0 9.02087 0 10.4V18.2C0 18.5448 0.122916 18.8754 0.341709 19.1192C0.560501 19.363 0.857247 19.5 1.16667 19.5H8.16667V24.7C8.16667 25.0448 8.28958 25.3754 8.50838 25.6192C8.72717 25.863 9.02391 26 9.33333 26C9.64275 26 9.9395 25.863 10.1583 25.6192C10.3771 25.3754 10.5 25.0448 10.5 24.7V19.5H19.8333C20.1428 19.5 20.4395 19.363 20.6583 19.1192C20.8771 18.8754 21 18.5448 21 18.2V10.4C21 9.02087 20.5083 7.69823 19.6332 6.72304C18.758 5.74786 17.571 5.2 16.3333 5.2ZM11.6667 10.4V16.9H2.33333V10.4C2.33333 9.71044 2.57917 9.04912 3.01675 8.56152C3.45434 8.07393 4.04783 7.8 4.66667 7.8H12.32C11.8959 8.58519 11.6701 9.48355 11.6667 10.4ZM18.6667 16.9H14V10.4C14 9.71044 14.2458 9.04912 14.6834 8.56152C15.121 8.07393 15.7145 7.8 16.3333 7.8C16.9522 7.8 17.5457 8.07393 17.9832 8.56152C18.4208 9.04912 18.6667 9.71044 18.6667 10.4V16.9Z"></path>
  </symbol>
  <symbol xmlns="http://www.w3.org/2000/svg" viewBox="0 0 44 44" id="telegram">
    <path d="M42 2L2 18.6667L13.4286 25.3333L30.5714 12L19.1429 28.6667L36.2857 42L42 2Z" stroke-width="3" stroke-linejoin="round"></path>
  </symbol>
  <symbol xmlns="http://www.w3.org/2000/svg" viewBox="0 0 48 48" id="tel">
    <path d="M38 46c4.18 0 7-2.94 7.83-8.08a5 5 0 0 0-1-3.77l-.16-.15-6.07-4.8a5 5 0 0 0-6.29.24l-2.62 2.48C24.23 30.68 16.39 23.6 16 18.38l2.59-2.73a5 5 0 0 0 .19-6.27L14 3.33a.73.73 0 0 0-.18-.17 5 5 0 0 0-3.76-1C4.94 3 2 5.82 2 10a36 36 0 0 0 36 36ZM10.38 4.15a3.11 3.11 0 0 1 .43 0 3 3 0 0 1 1.72.55l4.67 5.9a3 3 0 0 1-.09 3.72l-2.84 3A1 1 0 0 0 14 18c0 6.44 9.29 14.9 15.84 16a1 1 0 0 0 .85-.26l3-2.81a3 3 0 0 1 3.73-.13l5.95 4.68a2.92 2.92 0 0 1 .52 2.15C43.4 40.53 42 44 38 44A34 34 0 0 1 4 10c0-4 3.47-5.4 6.38-5.85Z"></path>
  </symbol>
  <symbol xmlns="http://www.w3.org/2000/svg" viewBox="0 0 10 7" id="triangle">
    <path d="M9.91573 0.691287C9.96412 0.625866 9.99288 0.548885 9.99884 0.468781C10.0048 0.388676 9.98774 0.308537 9.94952 0.237145C9.91131 0.165752 9.85342 0.105861 9.78219 0.0640315C9.71096 0.0222023 9.62915 4.94819e-05 9.54571 -1.98577e-08L0.45429 -4.17256e-07C0.370852 4.90772e-05 0.289037 0.0222019 0.217809 0.0640311C0.146581 0.10586 0.0886888 0.165752 0.0504751 0.237144C0.0122614 0.308537 -0.00479891 0.388675 0.00116155 0.46878C0.00712297 0.548885 0.0358753 0.625865 0.0842704 0.691287L4.62998 6.81662C4.67203 6.87334 4.72754 6.91956 4.7919 6.95146C4.85626 6.98336 4.92761 7 5 7C5.07239 7 5.14374 6.98336 5.2081 6.95146C5.27246 6.91956 5.32797 6.87334 5.37002 6.81662L9.91573 0.691287Z"></path>
  </symbol>
  <symbol xmlns="http://www.w3.org/2000/svg" viewBox="0 0 512 512" id="whatsapp">
    <path d="M317.12 285.93c-9.69 3.96-15.88 19.13-22.16 26.88-3.22 3.97-7.06 4.59-12.01 2.6-36.37-14.49-64.25-38.76-84.32-72.23-3.4-5.19-2.79-9.29 1.31-14.11 6.06-7.14 13.68-15.25 15.32-24.87 3.64-21.28-24.18-87.29-60.92-57.38C48.62 232.97 330.7 461.46 381.61 337.88c14.4-35.03-48.43-58.53-64.49-51.95zM256 467.28c-37.39 0-74.18-9.94-106.39-28.76-5.17-3.03-11.42-3.83-17.2-2.26l-69.99 19.21 24.38-53.71a22.34 22.34 0 0 0-2.22-22.32C58.5 343.29 44.71 300.61 44.71 256c0-116.51 94.78-211.29 211.29-211.29S467.28 139.49 467.28 256c0 116.5-94.78 211.28-211.28 211.28zM256 0C114.84 0 0 114.84 0 256c0 49.66 14.1 97.35 40.89 138.74L2 480.39a22.37 22.37 0 0 0 3.34 23.76A22.403 22.403 0 0 0 22.36 512c14.42 0 93.05-24.71 113.06-30.2C172.41 501.59 213.9 512 256 512c141.15 0 256-114.85 256-256C512 114.84 397.15 0 256 0z"></path>
  </symbol>
  <symbol xmlns="http://www.w3.org/2000/svg" viewBox="0 0 18 22" id="bell">
    <path d="M9 0.411865C6.98027 0.411865 5.04327 1.2245 3.61511 2.671C2.18695 4.1175 1.38462 6.07937 1.38462 8.12503V14.4358H0V15.8382H18V14.4358H16.6154V8.12503C16.6154 6.07937 15.8131 4.1175 14.3849 2.671C12.9567 1.2245 11.0197 0.411865 9 0.411865ZM5.53846 17.9418V17.2406H12.4615V17.9418C12.4615 18.8716 12.0968 19.7634 11.4477 20.4209C10.7985 21.0784 9.91806 21.4478 9 21.4478C8.08194 21.4478 7.20149 21.0784 6.55232 20.4209C5.90316 19.7634 5.53846 18.8716 5.53846 17.9418Z"/>
  </symbol>
  <symbol xmlns="http://www.w3.org/2000/svg" viewBox="0 0 29 29" id="check" fill="none">
    <circle cx="14.8223" cy="14.6066" r="14.1066" fill="#4E7CE2"/>
    <path d="M8.04003 13.5269L13.3108 19.1407L20.4793 9.64611" stroke="black" stroke-width="2"/>
  </symbol>
  <symbol xmlns="http://www.w3.org/2000/svg" viewBox="0 0 32 29" id="star">
    <path d="M15.8121 0.527832L19.4317 11.3196H31.1449L21.6687 17.9893L25.2883 28.7811L15.8121 22.1114L6.33596 28.7811L9.95554 17.9893L0.479366 11.3196H12.1926L15.8121 0.527832Z"/>
  </symbol>
  <symbol xmlns="http://www.w3.org/2000/svg" viewBox="0 0 34 34" id="lock">
    <path d="M17 1c-5 0-9 4-9 9v4c-1.7 0-3 1.3-3 3v13c0 1.7 1.3 3 3 3h18c1.7 0 3-1.3 3-3V17c0-1.7-1.3-3-3-3v-4c0-5-4-9-9-9zm10 16v13c0 .6-.4 1-1 1H8c-.6 0-1-.4-1-1V17c0-.6.4-1 1-1h18c.6 0 1 .4 1 1zm-17-3v-4c0-3.9 3.1-7 7-7s7 3.1 7 7v4z"></path>
    <path d="M17 19c-1.7 0-3 1.3-3 3 0 1.3.8 2.4 2 2.8V27c0 .6.4 1 1 1s1-.4 1-1v-2.2c1.2-.4 2-1.5 2-2.8 0-1.7-1.3-3-3-3zm0 4c-.6 0-1-.4-1-1s.4-1 1-1 1 .4 1 1-.4 1-1 1z"></path>
  </symbol>
  <symbol xmlns="http://www.w3.org/2000/svg" viewBox="0 0 16 16" id="lock-check">
    <path d="M8 .5a4.004 4.004 0 0 0-4 4v1.05A2.504 2.504 0 0 0 2 8v5a2.503 2.503 0 0 0 2.5 2.5h7A2.503 2.503 0 0 0 14 13V8a2.504 2.504 0 0 0-2-2.45V4.5a4.004 4.004 0 0 0-4-4zm-3 4a3 3 0 0 1 6 0v1H5zM13 8v5a1.502 1.502 0 0 1-1.5 1.5h-7A1.502 1.502 0 0 1 3 13V8a1.502 1.502 0 0 1 1.5-1.5h7A1.502 1.502 0 0 1 13 8z"></path><path d="M9.146 9.146 7.5 10.793l-.646-.646a.5.5 0 0 0-.707.706l1 1a.5.5 0 0 0 .707 0l2-2a.5.5 0 0 0-.707-.706z"></path>
  </symbol>
  <symbol xmlns="http://www.w3.org/2000/svg" viewBox="0 0 479.058 479.058" id="mail">
    <path d="M434.146 59.882H44.912C20.146 59.882 0 80.028 0 104.794v269.47c0 24.766 20.146 44.912 44.912 44.912h389.234c24.766 0 44.912-20.146 44.912-44.912v-269.47c0-24.766-20.146-44.912-44.912-44.912zm0 29.941c2.034 0 3.969.422 5.738 1.159L239.529 264.631 39.173 90.982a14.902 14.902 0 0 1 5.738-1.159zm0 299.411H44.912c-8.26 0-14.971-6.71-14.971-14.971V122.615l199.778 173.141c2.822 2.441 6.316 3.655 9.81 3.655s6.988-1.213 9.81-3.655l199.778-173.141v251.649c-.001 8.26-6.711 14.97-14.971 14.97z"></path>
  </symbol>
  <symbol xmlns="http://www.w3.org/2000/svg" viewBox="0 0 484 484" id="pencil">
    <path d="M401.648 18.234c-24.394-24.351-63.898-24.351-88.293 0l-22.101 22.223-235.27 235.145-.5.503c-.12.122-.12.25-.25.25-.25.375-.625.747-.87 1.122 0 .125-.13.125-.13.25-.25.375-.37.625-.625 1-.12.125-.12.246-.246.375-.125.375-.25.625-.379 1 0 .12-.12.12-.12.25L.663 437.32a12.288 12.288 0 0 0 2.996 12.735 12.564 12.564 0 0 0 8.867 3.625c1.356-.024 2.7-.235 3.996-.625l156.848-52.325c.121 0 .121 0 .25-.12a4.523 4.523 0 0 0 1.121-.505.443.443 0 0 0 .254-.12c.371-.25.871-.505 1.246-.755.371-.246.75-.62 1.125-.87.125-.13.246-.13.246-.25.13-.126.38-.247.504-.5l257.371-257.372c24.352-24.394 24.352-63.898 0-88.289zM169.375 371.383l-86.914-86.91L299.996 66.938l86.914 86.91zm-99.156-63.809 75.93 75.926-114.016 37.96zm347.664-184.82-13.238 13.363L317.727 49.2l13.367-13.36c14.62-14.609 38.32-14.609 52.945 0l33.965 33.966c14.512 14.687 14.457 38.332-.121 52.949zm0 0"></path>
  </symbol>
  <symbol xmlns="http://www.w3.org/2000/svg" viewBox="0 0 32 32" id="calendar">
    <path d="m20.293 16.091-5.667 5.667-2.919-2.92a1 1 0 1 0-1.414 1.414l3.626 3.627a.997.997 0 0 0 1.414 0l6.374-6.374a1 1 0 1 0-1.414-1.414z"></path><path d="M25 3.96h-1.5V3a1 1 0 0 0-2 0v.96h-11V3a1 1 0 0 0-2 0v.96H7c-2.757 0-5 2.243-5 5V25c0 2.757 2.243 5 5 5h18c2.757 0 5-2.243 5-5V8.96c0-2.757-2.243-5-5-5zm-21 5c0-1.654 1.346-3 3-3h1.5v.96a1 1 0 0 0 2 0v-.96h11v.96a1 1 0 0 0 2 0v-.96H25c1.654 0 3 1.346 3 3v1.01H4zM25 28H7c-1.654 0-3-1.346-3-3V11.97h24V25c0 1.654-1.346 3-3 3z"></path>
  </symbol>
  <symbol xmlns="http://www.w3.org/2000/svg" viewBox="0 0 512 512" id="eye">
    <path d="M153.349 255.994c0-56.578 46.02-102.617 102.659-102.617 56.579 0 102.598 46.038 102.598 102.617 0 56.591-46.019 102.61-102.598 102.61-56.64 0-102.659-46.019-102.659-102.61zm-124.815-9.79c-3.54 6.403-3.54 13.177 0 19.586 45.959 82.53 133.115 133.799 227.474 133.799 94.297 0 181.454-51.268 227.413-133.799 3.601-6.409 3.601-13.183 0-19.586-45.959-82.53-133.115-133.793-227.413-133.793-94.359 0-181.515 51.263-227.474 133.793zm227.474-59.197c-38.085 0-69.03 30.944-69.03 68.987 0 38.042 30.944 68.987 69.03 68.987 38.024 0 68.968-30.944 68.968-68.987s-30.944-68.987-68.968-68.987z"></path>
  </symbol>
  <symbol xmlns="http://www.w3.org/2000/svg" viewBox="0 0 24 24" id="card">
    <path d="M20 5.9H4a2.603 2.603 0 0 0-2.6 2.6v9c0 1.434 1.167 2.6 2.6 2.6h16c1.434 0 2.6-1.167 2.6-2.6v-9c0-1.434-1.166-2.6-2.6-2.6zm1.4 11.6c0 .772-.629 1.4-1.4 1.4H4c-.772 0-1.4-.628-1.4-1.4v-6.566h18.8zm0-7.767H2.6V8.5c0-.772.628-1.4 1.4-1.4h16c.771 0 1.4.628 1.4 1.4zm-6 6.705a.6.6 0 0 1 .6-.6h2a.6.6 0 0 1 0 1.2h-2a.6.6 0 0 1-.6-.6z"></path>
  </symbol>
  <symbol xmlns="http://www.w3.org/2000/svg" viewBox="0 0 22 22" id="search">
    <path d="M20 20L14 14M2 9C2 9.91925 2.18106 10.8295 2.53284 11.6788C2.88463 12.5281 3.40024 13.2997 4.05025 13.9497C4.70026 14.5998 5.47194 15.1154 6.32122 15.4672C7.1705 15.8189 8.08075 16 9 16C9.91925 16 10.8295 15.8189 11.6788 15.4672C12.5281 15.1154 13.2997 14.5998 13.9497 13.9497C14.5998 13.2997 15.1154 12.5281 15.4672 11.6788C15.8189 10.8295 16 9.91925 16 9C16 8.08075 15.8189 7.1705 15.4672 6.32122C15.1154 5.47194 14.5998 4.70026 13.9497 4.05025C13.2997 3.40024 12.5281 2.88463 11.6788 2.53284C10.8295 2.18106 9.91925 2 9 2C8.08075 2 7.1705 2.18106 6.32122 2.53284C5.47194 2.88463 4.70026 3.40024 4.05025 4.05025C3.40024 4.70026 2.88463 5.47194 2.53284 6.32122C2.18106 7.1705 2 8.08075 2 9Z" fill="none" />
  </symbol>
  <symbol xmlns="http://www.w3.org/2000/svg" viewBox="0 0 512.13 512.13" id="confirm">
    <path d="M256.065 0C114.43 0 0 114.298 0 256.065S114.298 512.13 256.065 512.13 512.13 397.832 512.13 256.065 397.702 0 256.065 0zm0 477.892c-122.891 0-221.828-98.937-221.828-221.828S133.175 34.236 256.065 34.236s221.828 98.937 221.828 221.828-98.937 221.828-221.828 221.828z"></path><path d="M378.956 180.952c-6.769-6.771-17.054-6.771-23.953-.001L223.651 312.304l-66.523-66.522c-6.769-6.769-17.054-6.769-23.953 0-6.769 6.769-6.769 17.053 0 23.953l78.498 78.498c3.385 3.385 6.769 5.077 11.977 5.077 5.077 0 8.592-1.692 11.977-5.077l143.329-143.328c6.769-6.769 6.769-17.052 0-23.953z"></path>
  </symbol>
  <symbol xmlns="http://www.w3.org/2000/svg" viewBox="0 0 260.666 260.666" id="passport">
    <path d="M236.666 40.882H24c-13.233 0-24 10.767-24 24v130.902c0 13.233 10.767 24 24 24h212.666c13.233 0 24-10.767 24-24V64.882c0-13.234-10.767-24-24-24zm9 154.902c0 4.962-4.037 9-9 9H24c-4.963 0-9-4.038-9-9V64.882c0-4.962 4.037-9 9-9h212.666c4.963 0 9 4.038 9 9v130.902z"></path><path d="M216.04 83.703h-68.933a6 6 0 0 0 0 12h68.933a6 6 0 0 0 0-12zM216.04 164.963h-68.933a6 6 0 1 0 0 12h68.933a6 6 0 0 0 0-12zM216.04 118.411h-41.718a6 6 0 0 0 0 12h41.718a6 6 0 0 0 0-12zM216.04 141.686h-41.718a6 6 0 0 0 0 12h41.718a6 6 0 1 0 0-12zM85.163 133.136c17.004 0 30.838-13.839 30.838-30.849 0-17.011-13.834-30.85-30.838-30.85-17.009 0-30.847 13.839-30.847 30.85 0 17.01 13.838 30.849 30.847 30.849zm0-46.698c8.733 0 15.838 7.11 15.838 15.85 0 8.739-7.104 15.849-15.838 15.849-8.738 0-15.847-7.11-15.847-15.849 0-8.74 7.109-15.85 15.847-15.85zM97.097 138.68H73.415c-16.592 0-30.09 13.497-30.09 30.088v12.961c0 4.142 3.357 7.5 7.5 7.5s7.5-3.358 7.5-7.5v-12.961c0-8.319 6.77-15.088 15.09-15.088h23.682c8.32 0 15.09 6.768 15.09 15.088v12.961c0 4.142 3.357 7.5 7.5 7.5s7.5-3.358 7.5-7.5v-12.961c0-16.591-13.499-30.088-30.09-30.088z"></path>
  </symbol>
  <symbol xmlns="http://www.w3.org/2000/svg" viewBox="0 0 408.576 408.576" id="check">
    <path d="M204.288 0C91.648 0 0 91.648 0 204.288s91.648 204.288 204.288 204.288 204.288-91.648 204.288-204.288S316.928 0 204.288 0zm114.176 150.528-130.56 129.536c-7.68 7.68-19.968 8.192-28.16.512L90.624 217.6c-8.192-7.68-8.704-20.48-1.536-28.672 7.68-8.192 20.48-8.704 28.672-1.024l54.784 50.176L289.28 121.344c8.192-8.192 20.992-8.192 29.184 0s8.192 20.992 0 29.184z"></path>
  </symbol>
  <symbol xmlns="http://www.w3.org/2000/svg" viewBox="0 0 60 60" id="notCheck">
    <circle cx="30" cy="30" r="29" fill="#f74850"></circle><path fill="#ffffff" d="m34.218 30 7.373 7.373a1.4 1.4 0 0 1 0 1.976l-2.242 2.242a1.4 1.4 0 0 1-1.976 0L30 34.218l-7.373 7.373a1.4 1.4 0 0 1-1.976 0l-2.242-2.242a1.4 1.4 0 0 1 0-1.976L25.782 30l-7.373-7.373a1.4 1.4 0 0 1 0-1.976l2.242-2.242a1.4 1.4 0 0 1 1.976 0L30 25.782l7.373-7.373a1.4 1.4 0 0 1 1.976 0l2.242 2.242a1.4 1.4 0 0 1 0 1.976z"></path>
  </symbol>
</svg>