<svg width="40" height="40" viewBox="0 0 40 40" fill="none" xmlns="http://www.w3.org/2000/svg">
<path d="M22.8027 28.8C19.9398 28.2273 17.3104 26.8203 15.2457 24.7561C13.181 22.6918 11.7733 20.0628 11.2 17.2C11.11 16.748 11.1879 16.2788 11.4191 15.8801C11.6503 15.4815 12.019 15.1809 12.456 15.0347L22.8027 28.8ZM22.8027 28.8C23.2546 28.89 23.7239 28.8121 24.1225 28.5809C24.5211 28.3497 24.8218 27.981 24.968 27.544L22.8027 28.8ZM37.1156 27.4109L37.1167 27.4114C37.5323 27.6189 37.8819 27.9381 38.1262 28.3331C38.3705 28.7282 38.5 29.1835 38.5 29.648V33.3333C38.5 34.7036 37.9557 36.0178 36.9867 36.9867C36.0178 37.9557 34.7036 38.5 33.3333 38.5H28C13.3644 38.5 1.5 26.6356 1.5 12V6.66667C1.5 5.29638 2.04434 3.98222 3.01328 3.01328C3.98222 2.04434 5.29638 1.5 6.66667 1.5H12.5859C13.1431 1.50067 13.684 1.68743 14.1229 2.03064C14.562 2.37398 14.8737 2.8542 15.0086 3.395L15.0088 3.3958L16.5715 9.64647L16.5716 9.6469C16.7245 10.2578 16.6412 10.9039 16.3384 11.4561C16.0356 12.0082 15.5355 12.4258 14.9382 12.6252L11.9813 13.6118L11.98 13.6122C11.1967 13.8743 10.536 14.4131 10.1216 15.1275C9.70717 15.842 9.56755 16.683 9.7289 17.493L9.7292 17.4946C10.3607 20.6476 11.9111 23.5433 14.1851 25.8168C16.4592 28.0904 19.3553 29.6401 22.5085 30.2709L22.5096 30.2711C23.3196 30.4324 24.1607 30.2928 24.8751 29.8784C25.5896 29.464 26.1284 28.8033 26.3905 28.02L26.3909 28.0188L27.1855 25.6375L27.1859 25.6363C27.299 25.2964 27.4839 24.9848 27.728 24.7225C27.9721 24.4603 28.2697 24.2535 28.6007 24.1164C28.9316 23.9792 29.2882 23.9147 29.6463 23.9274L29.6992 22.4283L29.6463 23.9274C30.0042 23.94 30.3552 24.0294 30.6756 24.1895C30.6757 24.1896 30.6758 24.1896 30.6759 24.1897L37.1156 27.4109Z" stroke="white" stroke-width="3"/>
</svg>
