<svg width="10" height="7" viewBox="0 0 10 7" fill="none" xmlns="http://www.w3.org/2000/svg">
<path d="M9.91573 0.691287C9.96412 0.625866 9.99288 0.548885 9.99884 0.468781C10.0048 0.388676 9.98774 0.308537 9.94952 0.237145C9.91131 0.165752 9.85342 0.105861 9.78219 0.0640315C9.71096 0.0222023 9.62915 4.94819e-05 9.54571 -1.98577e-08L0.45429 -4.17256e-07C0.370852 4.90772e-05 0.289037 0.0222019 0.217809 0.0640311C0.146581 0.10586 0.0886888 0.165752 0.0504751 0.237144C0.0122614 0.308537 -0.00479891 0.388675 0.00116155 0.46878C0.00712297 0.548885 0.0358753 0.625865 0.0842704 0.691287L4.62998 6.81662C4.67203 6.87334 4.72754 6.91956 4.7919 6.95146C4.85626 6.98336 4.92761 7 5 7C5.07239 7 5.14374 6.98336 5.2081 6.95146C5.27246 6.91956 5.32797 6.87334 5.37002 6.81662L9.91573 0.691287Z" fill="white"/>
</svg>
