<svg width="40" height="40" viewBox="0 0 40 40" fill="none" xmlns="http://www.w3.org/2000/svg">
<mask id="path-1-inside-1_0_542" fill="white">
<path d="M5.06667 31.2L6.25867 31.7973L6.62667 31.0587L6.13333 30.4L5.06667 31.2ZM8.8 34.9333L9.6 33.8667L8.94133 33.3733L8.20267 33.7413L8.8 34.9333ZM1.33333 38.6666L0.141333 38.0693C0.0165 38.3194 -0.0265784 38.6024 0.0181868 38.8783C0.062952 39.1542 0.193297 39.4091 0.390798 39.6069C0.5883 39.8047 0.842969 39.9354 1.11881 39.9806C1.39466 40.0258 1.67772 39.9831 1.928 39.8587L1.33333 38.6666ZM12 12L11.2613 10.8907C11.0785 11.0123 10.9286 11.1772 10.8249 11.3707C10.7211 11.5643 10.6668 11.7804 10.6667 12H12ZM28 28V29.3333C28.2196 29.3332 28.4357 29.2789 28.6293 29.1751C28.8228 29.0714 28.9877 28.9215 29.1093 28.7387L28 28ZM0 20C0 24.5013 1.488 28.6587 4 32L6.13333 30.4C3.87788 27.4024 2.66087 23.7513 2.66667 20H0ZM20 0C14.6957 0 9.60859 2.10714 5.85786 5.85786C2.10714 9.60859 0 14.6957 0 20H2.66667C2.66667 15.4029 4.49285 10.9941 7.74348 7.74348C10.9941 4.49285 15.4029 2.66667 20 2.66667V0ZM40 20C40 14.6957 37.8929 9.60859 34.1421 5.85786C30.3914 2.10714 25.3043 0 20 0V2.66667C22.2762 2.66667 24.5302 3.11501 26.6332 3.98609C28.7362 4.85717 30.647 6.13393 32.2565 7.74348C33.8661 9.35303 35.1428 11.2638 36.0139 13.3668C36.885 15.4698 37.3333 17.7237 37.3333 20H40ZM20 40C25.3043 40 30.3914 37.8928 34.1421 34.1421C37.8929 30.3914 40 25.3043 40 20H37.3333C37.3333 22.2762 36.885 24.5302 36.0139 26.6332C35.1428 28.7361 33.8661 30.647 32.2565 32.2565C30.647 33.8661 28.7362 35.1428 26.6332 36.0139C24.5302 36.885 22.2762 37.3333 20 37.3333V40ZM8 36C11.4592 38.6016 15.6717 40.0058 20 40V37.3333C16.2486 37.3393 12.5975 36.1223 9.6 33.8667L8 36ZM1.928 39.8587L9.39467 36.1253L8.20267 33.7413L0.733333 37.4747L1.928 39.8587ZM3.872 30.6053L0.138667 38.072L2.52267 39.264L6.25867 31.7973L3.872 30.6053ZM10.6667 12V14.6667H13.3333V12H10.6667ZM25.3333 29.3333H28V26.6667H25.3333V29.3333ZM10.6667 14.6667C10.6667 18.5565 12.2119 22.287 14.9624 25.0376C17.713 27.7881 21.4435 29.3333 25.3333 29.3333V26.6667C22.1507 26.6667 19.0985 25.4024 16.8481 23.1519C14.5976 20.9015 13.3333 17.8493 13.3333 14.6667H10.6667ZM12.7387 13.1093L13.3093 12.7307L11.8293 10.512L11.2613 10.8907L12.7387 13.1093ZM15.3627 13.6213L15.736 15.8507L18.3653 15.4133L17.992 13.1813L15.3627 13.6213ZM15.16 17.1813L12.5947 18.8907L14.072 21.1093L16.6373 19.4L15.16 17.1813ZM15.736 15.8507C15.7786 16.1044 15.7469 16.365 15.6447 16.6011C15.5425 16.8372 15.3742 17.0387 15.16 17.1813L16.6373 19.4C17.2789 18.9726 17.7833 18.369 18.0898 17.6617C18.3964 16.9545 18.4921 16.1737 18.3653 15.4133L15.736 15.8507ZM13.3093 12.7307C13.4946 12.6075 13.7078 12.5326 13.9294 12.5129C14.151 12.4932 14.374 12.5292 14.5781 12.6178C14.7823 12.7063 14.961 12.8445 15.098 13.0198C15.235 13.1951 15.326 13.4019 15.3627 13.6213L17.992 13.1813C17.8819 12.5228 17.6086 11.9023 17.1972 11.3764C16.7858 10.8505 16.2493 10.436 15.6366 10.1706C15.024 9.90524 14.3546 9.79745 13.6896 9.85708C13.0245 9.91671 12.385 10.1419 11.8293 10.512L13.3093 12.7307ZM29.1093 28.7387L29.488 28.1707L27.2693 26.6907L26.8907 27.2613L29.1093 28.7387ZM26.816 22.008L24.5867 21.6347L24.1493 24.2667L26.3787 24.6373L26.8187 22.008H26.816ZM20.6 23.3627L18.8907 25.928L21.1093 27.4053L22.8187 24.84L20.6 23.3627ZM24.5867 21.6347C23.8263 21.5079 23.0455 21.6036 22.3382 21.9102C21.631 22.2167 21.0274 22.7211 20.6 23.3627L22.8187 24.84C22.9613 24.6258 23.1627 24.4575 23.3989 24.3553C23.635 24.2531 23.8956 24.2214 24.1493 24.264L24.5867 21.6347ZM29.488 28.1707C29.8581 27.615 30.0833 26.9754 30.1429 26.3104C30.2025 25.6454 30.0948 24.976 29.8294 24.3634C29.564 23.7507 29.1495 23.2142 28.6236 22.8028C28.0977 22.3913 27.4772 22.1181 26.8187 22.008L26.3787 24.6373C26.5981 24.674 26.8049 24.765 26.9802 24.902C27.1555 25.039 27.2937 25.2177 27.3822 25.4218C27.4708 25.626 27.5068 25.849 27.4871 26.0706C27.4674 26.2922 27.3925 26.5054 27.2693 26.6907L29.488 28.1707Z"/>
</mask>
<path d="M5.06667 31.2L6.25867 31.7973L6.62667 31.0587L6.13333 30.4L5.06667 31.2ZM8.8 34.9333L9.6 33.8667L8.94133 33.3733L8.20267 33.7413L8.8 34.9333ZM1.33333 38.6666L0.141333 38.0693C0.0165 38.3194 -0.0265784 38.6024 0.0181868 38.8783C0.062952 39.1542 0.193297 39.4091 0.390798 39.6069C0.5883 39.8047 0.842969 39.9354 1.11881 39.9806C1.39466 40.0258 1.67772 39.9831 1.928 39.8587L1.33333 38.6666ZM12 12L11.2613 10.8907C11.0785 11.0123 10.9286 11.1772 10.8249 11.3707C10.7211 11.5643 10.6668 11.7804 10.6667 12H12ZM28 28V29.3333C28.2196 29.3332 28.4357 29.2789 28.6293 29.1751C28.8228 29.0714 28.9877 28.9215 29.1093 28.7387L28 28ZM0 20C0 24.5013 1.488 28.6587 4 32L6.13333 30.4C3.87788 27.4024 2.66087 23.7513 2.66667 20H0ZM20 0C14.6957 0 9.60859 2.10714 5.85786 5.85786C2.10714 9.60859 0 14.6957 0 20H2.66667C2.66667 15.4029 4.49285 10.9941 7.74348 7.74348C10.9941 4.49285 15.4029 2.66667 20 2.66667V0ZM40 20C40 14.6957 37.8929 9.60859 34.1421 5.85786C30.3914 2.10714 25.3043 0 20 0V2.66667C22.2762 2.66667 24.5302 3.11501 26.6332 3.98609C28.7362 4.85717 30.647 6.13393 32.2565 7.74348C33.8661 9.35303 35.1428 11.2638 36.0139 13.3668C36.885 15.4698 37.3333 17.7237 37.3333 20H40ZM20 40C25.3043 40 30.3914 37.8928 34.1421 34.1421C37.8929 30.3914 40 25.3043 40 20H37.3333C37.3333 22.2762 36.885 24.5302 36.0139 26.6332C35.1428 28.7361 33.8661 30.647 32.2565 32.2565C30.647 33.8661 28.7362 35.1428 26.6332 36.0139C24.5302 36.885 22.2762 37.3333 20 37.3333V40ZM8 36C11.4592 38.6016 15.6717 40.0058 20 40V37.3333C16.2486 37.3393 12.5975 36.1223 9.6 33.8667L8 36ZM1.928 39.8587L9.39467 36.1253L8.20267 33.7413L0.733333 37.4747L1.928 39.8587ZM3.872 30.6053L0.138667 38.072L2.52267 39.264L6.25867 31.7973L3.872 30.6053ZM10.6667 12V14.6667H13.3333V12H10.6667ZM25.3333 29.3333H28V26.6667H25.3333V29.3333ZM10.6667 14.6667C10.6667 18.5565 12.2119 22.287 14.9624 25.0376C17.713 27.7881 21.4435 29.3333 25.3333 29.3333V26.6667C22.1507 26.6667 19.0985 25.4024 16.8481 23.1519C14.5976 20.9015 13.3333 17.8493 13.3333 14.6667H10.6667ZM12.7387 13.1093L13.3093 12.7307L11.8293 10.512L11.2613 10.8907L12.7387 13.1093ZM15.3627 13.6213L15.736 15.8507L18.3653 15.4133L17.992 13.1813L15.3627 13.6213ZM15.16 17.1813L12.5947 18.8907L14.072 21.1093L16.6373 19.4L15.16 17.1813ZM15.736 15.8507C15.7786 16.1044 15.7469 16.365 15.6447 16.6011C15.5425 16.8372 15.3742 17.0387 15.16 17.1813L16.6373 19.4C17.2789 18.9726 17.7833 18.369 18.0898 17.6617C18.3964 16.9545 18.4921 16.1737 18.3653 15.4133L15.736 15.8507ZM13.3093 12.7307C13.4946 12.6075 13.7078 12.5326 13.9294 12.5129C14.151 12.4932 14.374 12.5292 14.5781 12.6178C14.7823 12.7063 14.961 12.8445 15.098 13.0198C15.235 13.1951 15.326 13.4019 15.3627 13.6213L17.992 13.1813C17.8819 12.5228 17.6086 11.9023 17.1972 11.3764C16.7858 10.8505 16.2493 10.436 15.6366 10.1706C15.024 9.90524 14.3546 9.79745 13.6896 9.85708C13.0245 9.91671 12.385 10.1419 11.8293 10.512L13.3093 12.7307ZM29.1093 28.7387L29.488 28.1707L27.2693 26.6907L26.8907 27.2613L29.1093 28.7387ZM26.816 22.008L24.5867 21.6347L24.1493 24.2667L26.3787 24.6373L26.8187 22.008H26.816ZM20.6 23.3627L18.8907 25.928L21.1093 27.4053L22.8187 24.84L20.6 23.3627ZM24.5867 21.6347C23.8263 21.5079 23.0455 21.6036 22.3382 21.9102C21.631 22.2167 21.0274 22.7211 20.6 23.3627L22.8187 24.84C22.9613 24.6258 23.1627 24.4575 23.3989 24.3553C23.635 24.2531 23.8956 24.2214 24.1493 24.264L24.5867 21.6347ZM29.488 28.1707C29.8581 27.615 30.0833 26.9754 30.1429 26.3104C30.2025 25.6454 30.0948 24.976 29.8294 24.3634C29.564 23.7507 29.1495 23.2142 28.6236 22.8028C28.0977 22.3913 27.4772 22.1181 26.8187 22.008L26.3787 24.6373C26.5981 24.674 26.8049 24.765 26.9802 24.902C27.1555 25.039 27.2937 25.2177 27.3822 25.4218C27.4708 25.626 27.5068 25.849 27.4871 26.0706C27.4674 26.2922 27.3925 26.5054 27.2693 26.6907L29.488 28.1707Z" fill="white"/>
<path d="M17.992 13.1813L18.075 13.6744L17.9095 12.6882L17.992 13.1813ZM29.488 28.1707L29.2109 28.5868L29.7655 27.7547L29.488 28.1707ZM26.8187 22.008L27.3118 22.0905L26.3256 21.925L26.8187 22.008ZM16.7603 13.8957L18.075 13.6744L17.909 12.6883L16.5943 12.9096L16.7603 13.8957ZM16.9686 15.1388L15.654 15.3574L15.818 16.3439L17.1327 16.1252L16.9686 15.1388ZM15.4825 18.5678L16.2212 19.6771L17.0535 19.1229L16.3148 18.0135L15.4825 18.5678ZM28.1015 27.8482L29.2109 28.5868L29.7651 27.7545L28.6558 27.0158L28.1015 27.8482ZM27.0904 23.4057L27.3117 22.091L26.3256 21.925L26.1043 23.2396L27.0904 23.4057ZM23.8748 22.8673L23.6561 24.182L24.6426 24.346L24.8612 23.0314L23.8748 22.8673ZM21.9865 23.6851L20.8771 22.9465L20.3229 23.7788L21.4322 24.5175L21.9865 23.6851ZM2.66667 19.5H0V20.5H2.66667V19.5ZM20.5 2.66667V0H19.5V2.66667H20.5ZM37.3333 20.5H40V19.5H37.3333V20.5ZM19.5 37.3333V40H20.5V37.3333H19.5ZM10.6667 15.1667H13.3333V14.1667H10.6667V15.1667ZM24.8333 26.6667V29.3333H25.8333V26.6667H24.8333ZM13.7253 12.4532L12.2453 10.2345L11.4134 10.7895L12.8934 13.0081L13.7253 12.4532ZM15.818 16.3439L18.4474 15.9066L18.2833 14.9201L15.654 15.3574L15.818 16.3439ZM17.9095 12.6882L15.2801 13.1282L15.4452 14.1145L18.0745 13.6745L17.9095 12.6882ZM17.0535 19.1229L15.5762 16.9042L14.7438 17.4584L16.2212 19.6771L17.0535 19.1229ZM29.7655 27.7547L27.5468 26.2747L26.9919 27.1066L29.2105 28.5866L29.7655 27.7547ZM26.8718 24.7198L27.3118 22.0905L26.3255 21.9255L25.8855 24.5548L26.8718 24.7198ZM23.0958 24.4238L20.8771 22.9465L20.3229 23.7788L22.5415 25.2562L23.0958 24.4238ZM5.06667 31.2L4.46667 30.4L3.17353 31.3698L4.61865 32.094L5.06667 31.2ZM6.25867 31.7973L7.15297 32.2448L7.15374 32.2432L6.25867 31.7973ZM6.62667 31.0587L7.52174 31.5046L7.79669 30.9527L7.42706 30.4592L6.62667 31.0587ZM6.13333 30.4L6.93372 29.8005L6.9324 29.7987L6.13333 30.4ZM8.8 34.9333L7.90597 35.3813L8.63015 36.8265L9.6 35.5333L8.8 34.9333ZM9.6 33.8667L10.2013 33.0676L10.1995 33.0663L9.6 33.8667ZM8.94133 33.3733L9.54081 32.5729L9.04731 32.2033L8.49542 32.4782L8.94133 33.3733ZM8.20267 33.7413L7.75675 32.8462L7.75558 32.8468L8.20267 33.7413ZM1.33333 38.6666L2.22816 38.2202L2.07936 37.922L1.78135 37.7726L1.33333 38.6666ZM0.141333 38.0693L0.589346 37.1753L-0.306092 36.7266L-0.753399 37.6227L0.141333 38.0693ZM1.928 39.8587L2.37327 40.7541L2.37521 40.7531L1.928 39.8587ZM12 12V13H13.8673L12.8324 11.4458L12 12ZM10.6667 12L9.66667 11.9995V12H10.6667ZM28 28L28.5542 27.1676L27 26.1327V28H28ZM28 29.3333V30.3333H28.0005L28 29.3333ZM17.992 13.1813L17.0057 13.3463L17.0057 13.3463L17.992 13.1813ZM15.736 15.8507L14.7497 16.0158L14.7498 16.0163L15.736 15.8507ZM16.6373 19.4L16.0829 18.5677L16.0828 18.5678L16.6373 19.4ZM29.488 28.1707L30.3201 28.7254L30.3203 28.725L29.488 28.1707ZM26.8187 22.008L26.9836 21.0217L26.9017 21.008H26.8187V22.008ZM24.1493 24.264L23.9837 25.2502L24.9715 25.416L25.1358 24.4281L24.1493 24.264ZM20.6 23.3627L21.4322 23.9172L21.4323 23.917L20.6 23.3627ZM0 20H-1H0ZM4 32L3.20069 32.6009L3.80092 33.3993L4.6 32.8L4 32ZM2.66667 20L3.66667 20.0015V20H2.66667ZM20 0V-1V0ZM20 2.66667V1.66667V2.66667ZM37.3333 20H38.3333H37.3333ZM20 40V39H19.9987L20 40ZM20 37.3333V36.3333H19.9984L20 37.3333ZM8 36L7.2 35.4L6.6008 36.1989L7.39893 36.7992L8 36ZM9.39467 36.1253L9.84188 37.0197L10.7363 36.5725L10.2891 35.6781L9.39467 36.1253ZM0.733333 37.4747L0.286247 36.5802L-0.609172 37.0277L-0.160693 37.9227L0.733333 37.4747ZM3.872 30.6053L4.31881 29.7107L3.42459 29.2641L2.97757 30.1581L3.872 30.6053ZM0.138667 38.072L-0.75576 37.6248L-1.20297 38.5192L-0.308546 38.9664L0.138667 38.072ZM2.52267 39.264L2.07545 40.1584L2.96963 40.6055L3.41697 39.7115L2.52267 39.264ZM10.6667 14.6667H9.66667H10.6667ZM13.3333 14.6667H12.3333H13.3333ZM13.3333 12H14.3333V11H13.3333V12ZM28 26.6667H29V25.6667H28V26.6667ZM25.3333 26.6667V27.6667V26.6667ZM12.7387 13.1093L11.9063 13.6636L12.4597 14.4946L13.2916 13.9426L12.7387 13.1093ZM13.3093 12.7307L13.8622 13.5639L13.863 13.5634L13.3093 12.7307ZM11.8293 10.512L11.275 9.67972L11.2746 9.67994L11.8293 10.512ZM15.3627 13.6213L14.3763 13.7861L14.3764 13.7865L15.3627 13.6213ZM18.3653 15.4133L19.3517 15.2489L19.3516 15.2484L18.3653 15.4133ZM15.16 17.1813L14.6058 16.3489L14.6055 16.3491L15.16 17.1813ZM12.5947 18.8907L12.0402 18.0585L11.2082 18.6128L11.7623 19.4449L12.5947 18.8907ZM14.072 21.1093L13.2396 21.6636L13.7941 22.4962L14.6265 21.9415L14.072 21.1093ZM27.2693 26.6907L26.4366 26.137L26.4361 26.1378L27.2693 26.6907ZM26.8907 27.2613L26.0574 26.7084L25.5054 27.5403L26.3364 28.0937L26.8907 27.2613ZM26.816 22.008L26.6508 22.9943L26.7328 23.008H26.816V22.008ZM24.5867 21.6347L24.7518 20.6484L24.7511 20.6483L24.5867 21.6347ZM24.1493 24.2667L23.1629 24.1027L22.999 25.0891L23.9853 25.2531L24.1493 24.2667ZM26.3787 24.6373L26.5434 23.651L26.5427 23.6509L26.3787 24.6373ZM18.8907 25.928L18.0585 25.3735L17.5038 26.2059L18.3364 26.7603L18.8907 25.928ZM21.1093 27.4053L20.5551 28.2377L21.3872 28.7917L21.9415 27.9598L21.1093 27.4053ZM22.8187 24.84L23.6509 25.3945L23.6511 25.3942L22.8187 24.84ZM4.61865 32.094L5.81065 32.6913L6.70668 30.9033L5.51468 30.306L4.61865 32.094ZM7.15374 32.2432L7.52174 31.5046L5.73159 30.6127L5.36359 31.3514L7.15374 32.2432ZM7.42706 30.4592L6.93372 29.8005L5.33294 30.9995L5.82628 31.6581L7.42706 30.4592ZM5.53333 29.6L4.46667 30.4L5.66667 32L6.73333 31.2L5.53333 29.6ZM9.6 35.5333L10.4 34.4667L8.8 33.2667L8 34.3333L9.6 35.5333ZM10.1995 33.0663L9.54081 32.5729L8.34185 34.1737L9.00052 34.667L10.1995 33.0663ZM8.49542 32.4782L7.75675 32.8462L8.64858 34.6364L9.38725 34.2684L8.49542 32.4782ZM7.30864 34.1893L7.90597 35.3813L9.69403 34.4853L9.09669 33.2933L7.30864 34.1893ZM1.78135 37.7726L0.589346 37.1753L-0.306679 38.9633L0.885321 39.5607L1.78135 37.7726ZM-0.753399 37.6227C-0.971858 38.0604 -1.04724 38.5556 -0.968906 39.0385L1.00528 38.7182C0.994088 38.6492 1.00486 38.5784 1.03607 38.5159L-0.753399 37.6227ZM-0.968906 39.0385C-0.890566 39.5213 -0.662462 39.9673 -0.316835 40.3135L1.09843 38.9003C1.04906 38.8509 1.01647 38.7871 1.00528 38.7182L-0.968906 39.0385ZM-0.316835 40.3135C0.0287895 40.6596 0.47446 40.8884 0.957189 40.9674L1.28044 38.9937C1.21148 38.9824 1.14781 38.9498 1.09843 38.9003L-0.316835 40.3135ZM0.957189 40.9674C1.43992 41.0465 1.93528 40.9719 2.37327 40.754L1.48273 38.9633C1.42016 38.9944 1.34939 39.005 1.28044 38.9937L0.957189 40.9674ZM2.82283 39.4122L2.22816 38.2202L0.438506 39.1131L1.03317 40.3051L2.82283 39.4122ZM12.8324 11.4458L12.0937 10.3364L10.429 11.4449L11.1676 12.5542L12.8324 11.4458ZM10.7073 10.0581C10.3874 10.271 10.1251 10.5596 9.94351 10.8983L11.7062 11.8432C11.7322 11.7948 11.7696 11.7536 11.8153 11.7232L10.7073 10.0581ZM9.94351 10.8983C9.76196 11.237 9.66687 11.6152 9.66667 11.9995L11.6667 12.0005C11.6667 11.9456 11.6803 11.8916 11.7062 11.8432L9.94351 10.8983ZM10.6667 13H12V11H10.6667V13ZM27 28V29.3333H29V28H27ZM28.0005 30.3333C28.3848 30.3331 28.763 30.238 29.1017 30.0565L28.1568 28.2938C28.1084 28.3197 28.0544 28.3333 27.9995 28.3333L28.0005 30.3333ZM29.1017 30.0565C29.4404 29.8749 29.729 29.6126 29.9419 29.2927L28.2768 28.1847C28.2464 28.2303 28.2052 28.2678 28.1568 28.2938L29.1017 30.0565ZM29.6636 27.9063L28.5542 27.1676L27.4458 28.8323L28.5551 29.571L29.6636 27.9063ZM-1 20C-1 24.7252 0.562781 29.0921 3.20069 32.6009L4.79931 31.3991C2.41322 28.2252 1 24.2774 1 20H-1ZM4.6 32.8L6.73333 31.2L5.53333 29.6L3.4 31.2L4.6 32.8ZM6.9324 29.7987C4.80768 26.9749 3.6612 23.5355 3.66667 20.0015L1.66667 19.9984C1.66053 23.9672 2.94808 27.8299 5.33426 31.0012L6.9324 29.7987ZM20 -1C14.4305 -1 9.08902 1.21249 5.15076 5.15075L6.56497 6.56497C10.1282 3.00178 14.9609 1 20 1V-1ZM5.15076 5.15075C1.21249 9.08902 -1 14.4304 -1 20H1C1 14.9609 3.00178 10.1282 6.56497 6.56497L5.15076 5.15075ZM3.66667 20C3.66667 15.6681 5.3875 11.5137 8.45059 8.45059L7.03638 7.03637C3.59821 10.4745 1.66667 15.1377 1.66667 20H3.66667ZM8.45059 8.45059C11.5137 5.38749 15.6681 3.66667 20 3.66667V1.66667C15.1377 1.66667 10.4745 3.59821 7.03638 7.03637L8.45059 8.45059ZM41 20C41 14.4304 38.7875 9.08902 34.8492 5.15075L33.435 6.56497C36.9982 10.1282 39 14.9609 39 20H41ZM34.8492 5.15075C30.911 1.21249 25.5695 -1 20 -1V1C25.0391 1 29.8718 3.00178 33.435 6.56497L34.8492 5.15075ZM20 3.66667C22.1449 3.66667 24.2688 4.08914 26.2505 4.90997L27.0159 3.06221C24.7916 2.14087 22.4076 1.66667 20 1.66667V3.66667ZM26.2505 4.90997C28.2321 5.73079 30.0327 6.9339 31.5494 8.45059L32.9636 7.03637C31.2612 5.33397 29.2402 3.98354 27.0159 3.06221L26.2505 4.90997ZM31.5494 8.45059C33.0661 9.96728 34.2692 11.7678 35.09 13.7495L36.9378 12.9841C36.0165 10.7598 34.666 8.73878 32.9636 7.03637L31.5494 8.45059ZM35.09 13.7495C35.9109 15.7311 36.3333 17.8551 36.3333 20H38.3333C38.3333 17.5924 37.8591 15.2084 36.9378 12.9841L35.09 13.7495ZM20 41C25.5695 41 30.911 38.7875 34.8492 34.8492L33.435 33.435C29.8718 36.9982 25.0391 39 20 39V41ZM34.8492 34.8492C38.7875 30.911 41 25.5695 41 20H39C39 25.0391 36.9982 29.8718 33.435 33.435L34.8492 34.8492ZM36.3333 20C36.3333 22.1449 35.9109 24.2688 35.09 26.2505L36.9378 27.0159C37.8591 24.7915 38.3333 22.4076 38.3333 20H36.3333ZM35.09 26.2505C34.2692 28.2321 33.0661 30.0327 31.5494 31.5494L32.9636 32.9636C34.666 31.2612 36.0165 29.2402 36.9378 27.0159L35.09 26.2505ZM31.5494 31.5494C30.0327 33.0661 28.2321 34.2692 26.2505 35.09L27.0159 36.9378C29.2402 36.0164 31.2612 34.666 32.9636 32.9636L31.5494 31.5494ZM26.2505 35.09C24.2688 35.9108 22.1449 36.3333 20 36.3333V38.3333C22.4076 38.3333 24.7916 37.8591 27.0159 36.9378L26.2505 35.09ZM7.39893 36.7992C11.0318 39.5314 15.4557 41.0061 20.0013 41L19.9987 39C15.8876 39.0055 11.8866 37.6718 8.60107 35.2008L7.39893 36.7992ZM19.9984 36.3333C16.4645 36.339 13.025 35.1925 10.2013 33.0676L8.99872 34.6657C12.17 37.0521 16.0327 38.3397 20.0016 38.3333L19.9984 36.3333ZM8.8 33.2667L7.2 35.4L8.8 36.6L10.4 34.4667L8.8 33.2667ZM2.37521 40.7531L9.84188 37.0197L8.94745 35.2309L1.48079 38.9642L2.37521 40.7531ZM10.2891 35.6781L9.09709 33.2941L7.30824 34.1885L8.50024 36.5725L10.2891 35.6781ZM7.75558 32.8468L0.286247 36.5802L1.18042 38.3691L8.64975 34.6358L7.75558 32.8468ZM-0.160693 37.9227L1.03397 40.3067L2.82203 39.4106L1.62736 37.0266L-0.160693 37.9227ZM2.97757 30.1581L-0.75576 37.6248L1.03309 38.5192L4.76643 31.0525L2.97757 30.1581ZM-0.308546 38.9664L2.07545 40.1584L2.96988 38.3696L0.58588 37.1776L-0.308546 38.9664ZM3.41697 39.7115L7.15297 32.2448L5.36437 31.3498L1.62837 38.8165L3.41697 39.7115ZM6.70548 30.9027L4.31881 29.7107L3.42519 31.4999L5.81185 32.6919L6.70548 30.9027ZM9.66667 12V14.6667H11.6667V12H9.66667ZM14.3333 14.6667V12H12.3333V14.6667H14.3333ZM13.3333 11H10.6667V13H13.3333V11ZM25.3333 30.3333H28V28.3333H25.3333V30.3333ZM29 29.3333V26.6667H27V29.3333H29ZM28 25.6667H25.3333V27.6667H28V25.6667ZM9.66667 14.6667C9.66667 18.8217 11.3173 22.8066 14.2553 25.7447L15.6695 24.3305C13.1065 21.7675 11.6667 18.2913 11.6667 14.6667H9.66667ZM14.2553 25.7447C17.1934 28.6827 21.1783 30.3333 25.3333 30.3333V28.3333C21.7087 28.3333 18.2325 26.8934 15.6695 24.3305L14.2553 25.7447ZM25.3333 25.6667C22.416 25.6667 19.6181 24.5077 17.5552 22.4448L16.1409 23.859C18.5789 26.297 21.8855 27.6667 25.3333 27.6667V25.6667ZM17.5552 22.4448C15.4923 20.3819 14.3333 17.584 14.3333 14.6667H12.3333C12.3333 18.1145 13.703 21.4211 16.1409 23.859L17.5552 22.4448ZM13.2916 13.9426L13.8622 13.5639L12.7564 11.8974L12.1858 12.2761L13.2916 13.9426ZM11.2746 9.67994L10.7066 10.0586L11.816 11.7227L12.384 11.344L11.2746 9.67994ZM10.429 11.4449L11.9063 13.6636L13.571 12.5551L12.0937 10.3364L10.429 11.4449ZM14.3764 13.7865L14.7497 16.0158L16.7223 15.6855L16.3489 13.4562L14.3764 13.7865ZM19.3516 15.2484L18.9783 13.0164L17.0057 13.3463L17.379 15.5783L19.3516 15.2484ZM14.6055 16.3491L12.0402 18.0585L13.1492 19.7228L15.7145 18.0135L14.6055 16.3491ZM11.7623 19.4449L13.2396 21.6636L14.9044 20.5551L13.427 18.3364L11.7623 19.4449ZM14.6265 21.9415L17.1918 20.2322L16.0828 18.5678L13.5175 20.2771L14.6265 21.9415ZM14.7498 16.0163C14.7605 16.0797 14.7525 16.1449 14.727 16.2039L16.5624 16.9984C16.7413 16.5852 16.7968 16.1291 16.7222 15.685L14.7498 16.0163ZM14.727 16.2039C14.7014 16.2629 14.6593 16.3133 14.6058 16.3489L15.7142 18.0137C16.089 17.7642 16.3835 17.4116 16.5624 16.9984L14.727 16.2039ZM17.1917 20.2322C17.9937 19.6981 18.6242 18.9435 19.0074 18.0594L17.1723 17.264C16.9424 17.7945 16.5641 18.2472 16.0829 18.5677L17.1917 20.2322ZM19.0074 18.0594C19.3906 17.1753 19.5101 16.1994 19.3517 15.2489L17.3789 15.5777C17.474 16.148 17.4022 16.7336 17.1723 17.264L19.0074 18.0594ZM13.863 13.5634C13.9093 13.5326 13.9626 13.5139 14.018 13.509L13.8408 11.5168C13.4529 11.5513 13.0799 11.6823 12.7557 11.8979L13.863 13.5634ZM14.018 13.509C14.0734 13.504 14.1292 13.513 14.1802 13.5352L14.9761 11.7004C14.6189 11.5454 14.2286 11.4823 13.8408 11.5168L14.018 13.509ZM14.1802 13.5352C14.2312 13.5573 14.2759 13.5919 14.3102 13.6357L15.8858 12.4039C15.646 12.0972 15.3333 11.8553 14.9761 11.7004L14.1802 13.5352ZM14.3102 13.6357C14.3444 13.6795 14.3672 13.7312 14.3763 13.7861L16.349 13.4566C16.2849 13.0725 16.1256 12.7107 15.8858 12.4039L14.3102 13.6357ZM18.9783 13.0164C18.8406 12.1932 18.4991 11.4176 17.9848 10.7602L16.4096 11.9926C16.7182 12.387 16.9231 12.8524 17.0057 13.3463L18.9783 13.0164ZM17.9848 10.7602C17.4706 10.1029 16.8 9.58473 16.0341 9.253L15.2392 11.0882C15.6987 11.2873 16.1011 11.5982 16.4096 11.9926L17.9848 10.7602ZM16.0341 9.253C15.2682 8.92128 14.4315 8.78654 13.6003 8.86107L13.7789 10.8531C14.2776 10.8084 14.7797 10.8892 15.2392 11.0882L16.0341 9.253ZM13.6003 8.86107C12.769 8.93561 11.9696 9.21704 11.275 9.67972L12.3837 11.3443C12.8005 11.0667 13.2801 10.8978 13.7789 10.8531L13.6003 8.86107ZM29.9414 29.2934L30.3201 28.7254L28.6559 27.616L28.2773 28.184L29.9414 29.2934ZM26.4361 26.1378L26.0574 26.7084L27.7239 27.8142L28.1026 27.2436L26.4361 26.1378ZM26.3364 28.0937L28.5551 29.571L29.6636 27.9063L27.4449 26.429L26.3364 28.0937ZM26.9812 21.0217L24.7518 20.6484L24.4215 22.6209L26.6508 22.9943L26.9812 21.0217ZM23.6002 21.4707L23.1629 24.1027L25.1358 24.4306L25.5731 21.7986L23.6002 21.4707ZM23.9853 25.2531L26.2147 25.6238L26.5427 23.6509L24.3134 23.2802L23.9853 25.2531ZM26.8187 21.008H26.816V23.008H26.8187V21.008ZM19.7678 22.8082L18.0585 25.3735L19.7229 26.4825L21.4322 23.9172L19.7678 22.8082ZM18.3364 26.7603L20.5551 28.2377L21.6636 26.573L19.4449 25.0956L18.3364 26.7603ZM21.9415 27.9598L23.6509 25.3945L21.9865 24.2855L20.2771 26.8508L21.9415 27.9598ZM24.7511 20.6483C23.8006 20.4898 22.8246 20.6094 21.9406 20.9926L22.7359 22.8277C23.2664 22.5977 23.852 22.526 24.4223 22.621L24.7511 20.6483ZM21.9406 20.9926C21.0565 21.3758 20.3019 22.0063 19.7677 22.8083L21.4323 23.917C21.7528 23.4359 22.2055 23.0576 22.7359 22.8277L21.9406 20.9926ZM23.6511 25.3942C23.6867 25.3406 23.7371 25.2986 23.7961 25.273L23.0016 23.4376C22.5884 23.6164 22.2358 23.911 21.9863 24.2858L23.6511 25.3942ZM23.7961 25.273C23.8551 25.2475 23.9203 25.2395 23.9837 25.2502L24.3149 23.2778C23.8709 23.2032 23.4148 23.2587 23.0016 23.4376L23.7961 25.273ZM25.1358 24.4281L25.5731 21.7987L23.6002 21.4706L23.1629 24.0999L25.1358 24.4281ZM30.3203 28.725C30.7829 28.0304 31.0644 27.231 31.1389 26.3997L29.1469 26.2211C29.1022 26.7199 28.9333 27.1995 28.6557 27.6163L30.3203 28.725ZM31.1389 26.3997C31.2135 25.5685 31.0787 24.7317 30.747 23.9659L28.9118 24.7608C29.1108 25.2203 29.1916 25.7224 29.1469 26.2211L31.1389 26.3997ZM30.747 23.9659C30.4153 23.2 29.8971 22.5294 29.2398 22.0151L28.0074 23.5904C28.4018 23.8989 28.7127 24.3013 28.9118 24.7608L30.747 23.9659ZM29.2398 22.0151C28.5824 21.5009 27.8068 21.1593 26.9836 21.0217L26.6537 22.9943C27.1476 23.0769 27.613 23.2818 28.0074 23.5904L29.2398 22.0151ZM26.2139 25.6237C26.2688 25.6328 26.3205 25.6556 26.3643 25.6898L27.5961 24.1142C27.2893 23.8744 26.9275 23.7151 26.5434 23.651L26.2139 25.6237ZM26.3643 25.6898C26.4081 25.7241 26.4427 25.7688 26.4648 25.8198L28.2996 25.0239C28.1447 24.6667 27.9028 24.354 27.5961 24.1142L26.3643 25.6898ZM26.4648 25.8198C26.4869 25.8708 26.496 25.9266 26.491 25.982L28.4832 26.1592C28.5177 25.7714 28.4546 25.3811 28.2996 25.0239L26.4648 25.8198ZM26.491 25.982C26.4861 26.0374 26.4674 26.0907 26.4366 26.137L28.1021 27.2443C28.3176 26.9201 28.4487 26.5471 28.4832 26.1592L26.491 25.982Z" fill="white" mask="url(#path-1-inside-1_0_542)"/>
</svg>
